<?xml version="1.0" encoding="UTF-8"?>
<!-- Splash screen logo — putih di atas background #1E3A5F -->
<svg width="400" height="400" viewBox="0 0 100 100" xmlns="http://www.w3.org/2000/svg">

  <!-- Gear teeth -->
  <rect x="44.5" y="7" width="11" height="14" rx="3" fill="white" transform="rotate(0   50 50)"/>
  <rect x="44.5" y="7" width="11" height="14" rx="3" fill="white" transform="rotate(45  50 50)"/>
  <rect x="44.5" y="7" width="11" height="14" rx="3" fill="white" transform="rotate(90  50 50)"/>
  <rect x="44.5" y="7" width="11" height="14" rx="3" fill="white" transform="rotate(135 50 50)"/>
  <rect x="44.5" y="7" width="11" height="14" rx="3" fill="white" transform="rotate(180 50 50)"/>
  <rect x="44.5" y="7" width="11" height="14" rx="3" fill="white" transform="rotate(225 50 50)"/>
  <rect x="44.5" y="7" width="11" height="14" rx="3" fill="white" transform="rotate(270 50 50)"/>
  <rect x="44.5" y="7" width="11" height="14" rx="3" fill="white" transform="rotate(315 50 50)"/>

  <!-- Gear body -->
  <circle cx="50" cy="50" r="33" fill="white"/>

  <!-- Center hole — warna background splash (#1E3A5F) -->
  <circle cx="50" cy="50" r="13" fill="#1E3A5F"/>
  <circle cx="50" cy="50" r="4"  fill="white" opacity="0.5"/>
</svg>
